<svg width="48" height="50" viewBox="0 0 48 50" fill="none" xmlns="http://www.w3.org/2000/svg">
<path d="M32.2611 22.814C29.5498 22.814 29.1745 25.6285 29.1745 25.6285H34.935C34.935 25.6285 34.9725 22.814 32.2611 22.814Z" fill="#246A74"/>
<path d="M19.2028 25.6255H14.099V30.5119H18.9495C19.6813 30.4924 21.051 30.2774 21.051 28.1371C21.051 25.5962 19.2028 25.6255 19.2028 25.6255Z" fill="#246A74"/>
<path d="M24.0009 3.12598C12.4041 3.12598 3.00095 12.9209 3.00095 25.001C3.00095 37.0811 12.4041 46.876 24.0009 46.876C35.5978 46.876 45.0009 37.0811 45.0009 25.001C45.0009 12.9209 35.5978 3.12598 24.0009 3.12598ZM28.4259 16.5635H35.6541V18.8096H28.4259V16.5635ZM24.7697 28.3604C24.7697 33.9268 19.2009 33.751 19.2009 33.751H10.0884V15.4893H19.2009C21.9759 15.4893 24.1603 17.0811 24.1603 20.3525C24.1603 23.624 21.4884 23.8291 21.4884 23.8291C25.0134 23.8291 24.7697 28.3604 24.7697 28.3604ZM38.2884 28.0576H29.2041C29.2041 31.4463 32.2884 31.2314 32.2884 31.2314C35.2041 31.2314 35.1009 29.2686 35.1009 29.2686H38.1853C38.1853 34.4834 32.1853 34.1221 32.1853 34.1221C24.9947 34.1221 25.4541 27.1396 25.4541 27.1396C25.4541 27.1396 25.4447 20.1279 32.1853 20.1279C39.2822 20.1377 38.2884 28.0576 38.2884 28.0576Z" fill="#246A74"/>
<path d="M20.4412 20.6347C20.4412 18.7388 19.2028 18.7388 19.2028 18.7388H14.099V22.814H18.8838C19.7094 22.814 20.4412 22.5306 20.4412 20.6347Z" fill="#246A74"/>
</svg>
