<svg width="50" height="50" viewBox="0 0 50 50" fill="none" xmlns="http://www.w3.org/2000/svg">
<path d="M24.9972 3.12646C12.9172 3.12646 3.12225 13.1753 3.12225 25.5581C3.12225 35.4702 9.39178 43.8686 18.0832 46.8374C18.2051 46.8639 18.3295 46.877 18.4543 46.8765C19.2648 46.8765 19.5773 46.2808 19.5773 45.7632C19.5773 45.2261 19.5578 43.8198 19.548 41.9448C18.8244 42.1144 18.0842 42.2029 17.341 42.2085C13.132 42.2085 12.175 38.937 12.175 38.937C11.1789 36.3491 9.74334 35.6558 9.74334 35.6558C7.83904 34.3179 9.73357 34.2788 9.88006 34.2788H9.88982C12.0871 34.4741 13.2394 36.603 13.2394 36.603C14.3332 38.5171 15.798 39.0542 17.1066 39.0542C17.9719 39.0369 18.8238 38.8372 19.6066 38.4683C19.8019 37.0229 20.3683 36.0366 20.9933 35.4702C16.1398 34.9038 11.0324 32.98 11.0324 24.3862C11.0324 21.9351 11.882 19.9331 13.2785 18.3706C13.0539 17.8042 12.3019 15.519 13.4933 12.4331C13.6531 12.3949 13.8174 12.3784 13.9816 12.3843C14.7726 12.3843 16.5597 12.687 19.509 14.7378C23.0925 13.7352 26.8825 13.7352 30.466 14.7378C33.4152 12.687 35.2023 12.3843 35.9933 12.3843C36.1576 12.3784 36.3218 12.3949 36.4816 12.4331C37.673 15.519 36.9211 17.8042 36.6965 18.3706C38.0929 19.9429 38.9426 21.9448 38.9426 24.3862C38.9426 32.9995 33.8254 34.894 28.9523 35.4507C29.7336 36.144 30.4367 37.5112 30.4367 39.6011C30.4367 42.5991 30.4074 45.021 30.4074 45.7534C30.4074 46.2808 30.7101 46.8765 31.5207 46.8765C31.6519 46.877 31.7828 46.8639 31.9113 46.8374C40.6125 43.8686 46.8722 35.4604 46.8722 25.5581C46.8722 13.1753 37.0773 3.12646 24.9972 3.12646Z" fill="#246A74"/>
</svg>
