<svg width="50" height="50" viewBox="0 0 50 50" fill="none" xmlns="http://www.w3.org/2000/svg">
<path d="M43.3746 3.12695H6.86189C4.86678 3.12695 3.12361 4.5625 3.12361 6.53418V43.1279C3.12361 45.1104 4.86678 46.877 6.86189 46.877H43.3638C45.3697 46.877 46.8736 45.0986 46.8736 43.1279V6.53418C46.8853 4.5625 45.3697 3.12695 43.3746 3.12695ZM16.6851 39.5947H10.4176V20.1074H16.6851V39.5947ZM13.7681 17.1445H13.7232C11.7174 17.1445 10.4185 15.6514 10.4185 13.7822C10.4185 11.8789 11.7515 10.4209 13.8023 10.4209C15.8531 10.4209 17.108 11.8682 17.1529 13.7822C17.1519 15.6514 15.8531 17.1445 13.7681 17.1445ZM39.5914 39.5947H33.3238V28.9395C33.3238 26.3867 32.4117 24.6426 30.1441 24.6426C28.4117 24.6426 27.3863 25.8145 26.9303 26.9561C26.7594 27.3662 26.7135 27.9248 26.7135 28.4951V39.5947H20.4459V20.1074H26.7135V22.8193C27.6256 21.5205 29.0504 19.6514 32.3658 19.6514C36.4801 19.6514 39.5924 22.3633 39.5924 28.21L39.5914 39.5947Z" fill="#246A74"/>
</svg>
